# xmcd CD database file
#
# Track frame offsets:
#	150
#	27655
#	44727
#	67015
#	90872
#	107650
#	123550
#	138947
#	163647
#	178960
#	200610
#
# Disc length: 2994 seconds
#
# Revision: 0
# Processed by: cddbd v1.5.1PL0 Copyright (c) Steve Scherf et al.
# Submitted via: CDex 1.50beta9
#
DISCID=a10bb00b
DTITLE=Irazu - El calor de la noche
DYEAR=1999
DGENRE=Salsa
TTITLE0=No sirve de nada si no tiene sabor
TTITLE1=Voy a apagar la luz
TTITLE2=El jamaiquino
TTITLE3=Siempre te vas por la tarde
TTITLE4=El que siembra su maiz
TTITLE5=Rosa musita
TTITLE6=Llora timbailero
TTITLE7=Sonero mayor
TTITLE8=El calor de la noche
TTITLE9=Para que no me olivedes
TTITLE10=Aunque te quiro me voy
EXTD=YEAR: 1999
EXTT0=
EXTT1=
EXTT2=
EXTT3=
EXTT4=
EXTT5=
EXTT6=
EXTT7=
EXTT8=
EXTT9=
EXTT10=
PLAYORDER=
